<svg xmlns="http://www.w3.org/2000/svg" viewBox="0 0 1600 1000" width="1600" height="1000" preserveAspectRatio="xMidYMid slice">
<g>
<path d="M -20 -100 L -20.0 -104.4 L 20.0 -95.6 L 60.0 -87.4 L 100.0 -80.7 L 140.0 -76.1 L 180.0 -73.9 L 220.0 -73.9 L 260.0 -75.7 L 300.0 -78.3 L 340.0 -81.0 L 380.0 -82.9 L 420.0 -83.7 L 460.0 -83.4 L 500.0 -82.2 L 540.0 -80.9 L 580.0 -80.3 L 620.0 -81.1 L 660.0 -84.0 L 700.0 -89.0 L 740.0 -95.9 L 780.0 -104.1 L 820.0 -112.6 L 860.0 -120.4 L 900.0 -126.4 L 940.0 -130.2 L 980.0 -131.3 L 1020.0 -130.0 L 1060.0 -126.9 L 1100.0 -122.7 L 1140.0 -118.5 L 1180.0 -115.0 L 1220.0 -112.7 L 1260.0 -111.6 L 1300.0 -111.5 L 1340.0 -111.8 L 1380.0 -111.7 L 1420.0 -110.4 L 1460.0 -107.4 L 1500.0 -102.4 L 1540.0 -95.8 L 1580.0 -88.2 L 1620.0 -80.4" fill="none" stroke="currentColor" stroke-width="1.4"></path>
<path d="M -20 -52 L -20.0 -17.9 L 20.0 -9.8 L 60.0 -4.3 L 100.0 -1.4 L 140.0 -1.3 L 180.0 -3.5 L 220.0 -7.4 L 260.0 -12.2 L 300.0 -17.3 L 340.0 -21.9 L 380.0 -25.4 L 420.0 -27.7 L 460.0 -28.5 L 500.0 -28.4 L 540.0 -27.6 L 580.0 -26.8 L 620.0 -26.8 L 660.0 -28.2 L 700.0 -31.5 L 740.0 -36.9 L 780.0 -44.4 L 820.0 -53.8 L 860.0 -64.4 L 900.0 -75.5 L 940.0 -86.1 L 980.0 -95.5 L 1020.0 -102.8 L 1060.0 -107.5 L 1100.0 -109.3 L 1140.0 -108.2 L 1180.0 -104.6 L 1220.0 -99.1 L 1260.0 -92.3 L 1300.0 -85.1 L 1340.0 -78.3 L 1380.0 -72.5 L 1420.0 -68.0 L 1460.0 -65.1 L 1500.0 -63.6 L 1540.0 -63.1 L 1580.0 -62.9 L 1620.0 -62.5" fill="none" stroke="currentColor" stroke-width="1.4"></path>
<path d="M -20 -4 L -20.0 62.6 L 20.0 62.2 L 60.0 59.7 L 100.0 55.5 L 140.0 49.9 L 180.0 43.7 L 220.0 37.3 L 260.0 31.2 L 300.0 25.8 L 340.0 21.5 L 380.0 18.3 L 420.0 16.4 L 460.0 15.5 L 500.0 15.3 L 540.0 15.4 L 580.0 15.4 L 620.0 14.8 L 660.0 13.1 L 700.0 10.1 L 740.0 5.5 L 780.0 -0.8 L 820.0 -8.6 L 860.0 -17.7 L 900.0 -27.7 L 940.0 -37.9 L 980.0 -48.0 L 1020.0 -57.1 L 1060.0 -64.9 L 1100.0 -70.8 L 1140.0 -74.4 L 1180.0 -75.6 L 1220.0 -74.3 L 1260.0 -70.8 L 1300.0 -65.3 L 1340.0 -58.3 L 1380.0 -50.3 L 1420.0 -41.9 L 1460.0 -33.6 L 1500.0 -26.0 L 1540.0 -19.5 L 1580.0 -14.2 L 1620.0 -10.3" fill="none" stroke="currentColor" stroke-width="1.4"></path>
<path d="M -20 44 L -20.0 78.7 L 20.0 75.0 L 60.0 71.0 L 100.0 67.0 L 140.0 63.1 L 180.0 59.5 L 220.0 56.4 L 260.0 53.9 L 300.0 51.9 L 340.0 50.5 L 380.0 49.7 L 420.0 49.2 L 460.0 49.0 L 500.0 48.8 L 540.0 48.6 L 580.0 48.1 L 620.0 47.2 L 660.0 45.7 L 700.0 43.6 L 740.0 40.8 L 780.0 37.3 L 820.0 33.3 L 860.0 28.8 L 900.0 24.1 L 940.0 19.2 L 980.0 14.4 L 1020.0 10.0 L 1060.0 6.2 L 1100.0 3.1 L 1140.0 1.0 L 1180.0 -0.2 L 1220.0 -0.2 L 1260.0 0.9 L 1300.0 3.0 L 1340.0 6.1 L 1380.0 9.9 L 1420.0 14.4 L 1460.0 19.2 L 1500.0 24.2 L 1540.0 29.1 L 1580.0 33.7 L 1620.0 37.9" fill="none" stroke="currentColor" stroke-width="1.4"></path>
<path d="M -20 92 L -20.0 104.7 L 20.0 99.1 L 60.0 94.8 L 100.0 92.1 L 140.0 90.7 L 180.0 90.2 L 220.0 89.9 L 260.0 89.1 L 300.0 87.2 L 340.0 83.8 L 380.0 79.0 L 420.0 73.4 L 460.0 67.8 L 500.0 62.9 L 540.0 59.8 L 580.0 58.9 L 620.0 60.8 L 660.0 65.0 L 700.0 71.2 L 740.0 78.4 L 780.0 85.7 L 820.0 92.2 L 860.0 97.1 L 900.0 100.3 L 940.0 101.8 L 980.0 102.2 L 1020.0 102.0 L 1060.0 102.1 L 1100.0 103.1 L 1140.0 105.3 L 1180.0 108.8 L 1220.0 113.0 L 1260.0 117.2 L 1300.0 120.7 L 1340.0 122.4 L 1380.0 122.0 L 1420.0 118.9 L 1460.0 113.6 L 1500.0 106.5 L 1540.0 98.4 L 1580.0 90.5 L 1620.0 83.7" fill="none" stroke="currentColor" stroke-width="1.4"></path>
<path d="M -20 140 L -20.0 137.0 L 20.0 135.1 L 60.0 134.0 L 100.0 133.5 L 140.0 133.5 L 180.0 133.4 L 220.0 133.0 L 260.0 132.1 L 300.0 130.4 L 340.0 128.0 L 380.0 124.9 L 420.0 121.5 L 460.0 118.1 L 500.0 115.1 L 540.0 112.8 L 580.0 111.7 L 620.0 111.9 L 660.0 113.5 L 700.0 116.6 L 740.0 120.8 L 780.0 126.0 L 820.0 131.5 L 860.0 137.1 L 900.0 142.2 L 940.0 146.6 L 980.0 149.9 L 1020.0 152.2 L 1060.0 153.3 L 1100.0 153.6 L 1140.0 153.4 L 1180.0 152.8 L 1220.0 152.4 L 1260.0 152.4 L 1300.0 153.0 L 1340.0 154.3 L 1380.0 156.2 L 1420.0 158.5 L 1460.0 160.9 L 1500.0 163.0 L 1540.0 164.5 L 1580.0 165.0 L 1620.0 164.3" fill="none" stroke="currentColor" stroke-width="1.4"></path>
<path d="M -20 188 L -20.0 181.2 L 20.0 181.2 L 60.0 181.4 L 100.0 181.5 L 140.0 181.5 L 180.0 181.2 L 220.0 180.7 L 260.0 179.9 L 300.0 178.8 L 340.0 177.5 L 380.0 176.1 L 420.0 174.7 L 460.0 173.5 L 500.0 172.5 L 540.0 172.0 L 580.0 171.9 L 620.0 172.5 L 660.0 173.6 L 700.0 175.3 L 740.0 177.5 L 780.0 180.1 L 820.0 182.9 L 860.0 185.9 L 900.0 188.8 L 940.0 191.5 L 980.0 193.9 L 1020.0 195.8 L 1060.0 197.3 L 1100.0 198.3 L 1140.0 198.8 L 1180.0 198.8 L 1220.0 198.6 L 1260.0 198.1 L 1300.0 197.6 L 1340.0 197.1 L 1380.0 196.8 L 1420.0 196.7 L 1460.0 196.8 L 1500.0 197.3 L 1540.0 197.9 L 1580.0 198.8 L 1620.0 199.6" fill="none" stroke="currentColor" stroke-width="1.4"></path>
<path d="M -20 236.00000000000006 L -20.0 216.2 L 20.0 216.6 L 60.0 216.6 L 100.0 216.2 L 140.0 215.2 L 180.0 213.9 L 220.0 212.1 L 260.0 210.1 L 300.0 207.9 L 340.0 205.8 L 380.0 204.0 L 420.0 202.6 L 460.0 201.9 L 500.0 201.9 L 540.0 202.8 L 580.0 204.7 L 620.0 207.6 L 660.0 211.3 L 700.0 216.0 L 740.0 221.2 L 780.0 227.0 L 820.0 233.1 L 860.0 239.2 L 900.0 245.1 L 940.0 250.6 L 980.0 255.5 L 1020.0 259.6 L 1060.0 262.8 L 1100.0 265.1 L 1140.0 266.5 L 1180.0 267.1 L 1220.0 266.8 L 1260.0 265.9 L 1300.0 264.6 L 1340.0 262.9 L 1380.0 261.2 L 1420.0 259.6 L 1460.0 258.3 L 1500.0 257.3 L 1540.0 256.8 L 1580.0 256.8 L 1620.0 257.2" fill="none" stroke="currentColor" stroke-width="1.4"></path>
<path d="M -20 284 L -20.0 251.0 L 20.0 249.3 L 60.0 245.8 L 100.0 241.7 L 140.0 238.5 L 180.0 238.0 L 220.0 241.3 L 260.0 249.2 L 300.0 261.3 L 340.0 276.7 L 380.0 293.6 L 420.0 310.0 L 460.0 324.0 L 500.0 334.0 L 540.0 339.1 L 580.0 339.6 L 620.0 336.1 L 660.0 330.2 L 700.0 323.6 L 740.0 317.8 L 780.0 314.1 L 820.0 312.8 L 860.0 313.5 L 900.0 315.1 L 940.0 316.2 L 980.0 315.1 L 1020.0 310.7 L 1060.0 302.2 L 1100.0 290.0 L 1140.0 275.0 L 1180.0 258.8 L 1220.0 243.6 L 1260.0 231.1 L 1300.0 223.0 L 1340.0 220.0 L 1380.0 222.1 L 1420.0 228.3 L 1460.0 237.1 L 1500.0 246.8 L 1540.0 255.5 L 1580.0 262.1 L 1620.0 266.1" fill="none" stroke="currentColor" stroke-width="1.4"></path>
<path d="M -20 332 L -20.0 304.2 L 20.0 302.7 L 60.0 301.5 L 100.0 301.5 L 140.0 303.1 L 180.0 306.8 L 220.0 312.7 L 260.0 320.6 L 300.0 330.2 L 340.0 340.7 L 380.0 351.4 L 420.0 361.6 L 460.0 370.2 L 500.0 376.8 L 540.0 380.9 L 580.0 382.4 L 620.0 381.4 L 660.0 378.2 L 700.0 373.5 L 740.0 368.1 L 780.0 362.6 L 820.0 357.6 L 860.0 353.7 L 900.0 351.1 L 940.0 349.8 L 980.0 349.6 L 1020.0 349.8 L 1060.0 350.0 L 1100.0 349.5 L 1140.0 347.7 L 1180.0 344.3 L 1220.0 338.9 L 1260.0 331.7 L 1300.0 323.0 L 1340.0 313.3 L 1380.0 303.5 L 1420.0 294.3 L 1460.0 286.5 L 1500.0 280.8 L 1540.0 277.6 L 1580.0 277.2 L 1620.0 279.5" fill="none" stroke="currentColor" stroke-width="1.4"></path>
<path d="M -20 380 L -20.0 359.3 L 20.0 360.5 L 60.0 362.9 L 100.0 366.6 L 140.0 371.5 L 180.0 377.6 L 220.0 384.7 L 260.0 392.4 L 300.0 400.3 L 340.0 408.0 L 380.0 415.0 L 420.0 421.0 L 460.0 425.6 L 500.0 428.6 L 540.0 429.9 L 580.0 429.4 L 620.0 427.4 L 660.0 424.0 L 700.0 419.6 L 740.0 414.5 L 780.0 409.3 L 820.0 404.2 L 860.0 399.6 L 900.0 395.7 L 940.0 392.7 L 980.0 390.6 L 1020.0 389.4 L 1060.0 388.8 L 1100.0 388.6 L 1140.0 388.5 L 1180.0 388.1 L 1220.0 387.1 L 1260.0 385.2 L 1300.0 382.3 L 1340.0 378.2 L 1380.0 373.1 L 1420.0 367.1 L 1460.0 360.5 L 1500.0 353.5 L 1540.0 346.7 L 1580.0 340.4 L 1620.0 335.1" fill="none" stroke="currentColor" stroke-width="1.4"></path>
<path d="M -20 428 L -20.0 425.4 L 20.0 428.9 L 60.0 433.0 L 100.0 437.5 L 140.0 442.4 L 180.0 447.3 L 220.0 452.2 L 260.0 456.8 L 300.0 460.9 L 340.0 464.3 L 380.0 466.9 L 420.0 468.5 L 460.0 469.1 L 500.0 468.6 L 540.0 467.2 L 580.0 464.9 L 620.0 461.9 L 660.0 458.2 L 700.0 454.2 L 740.0 450.1 L 780.0 445.9 L 820.0 442.0 L 860.0 438.5 L 900.0 435.4 L 940.0 432.9 L 980.0 431.0 L 1020.0 429.7 L 1060.0 428.8 L 1100.0 428.4 L 1140.0 428.1 L 1180.0 428.0 L 1220.0 427.7 L 1260.0 427.2 L 1300.0 426.3 L 1340.0 424.9 L 1380.0 422.9 L 1420.0 420.3 L 1460.0 417.2 L 1500.0 413.6 L 1540.0 409.6 L 1580.0 405.5 L 1620.0 401.3" fill="none" stroke="currentColor" stroke-width="1.4"></path>
<path d="M -20 476 L -20.0 481.7 L 20.0 484.4 L 60.0 486.9 L 100.0 488.8 L 140.0 489.8 L 180.0 489.7 L 220.0 488.6 L 260.0 486.6 L 300.0 484.0 L 340.0 481.2 L 380.0 478.6 L 420.0 476.4 L 460.0 474.9 L 500.0 474.1 L 540.0 473.8 L 580.0 473.7 L 620.0 473.6 L 660.0 473.1 L 700.0 472.1 L 740.0 470.5 L 780.0 468.5 L 820.0 466.4 L 860.0 464.5 L 900.0 463.1 L 940.0 462.7 L 980.0 463.3 L 1020.0 464.9 L 1060.0 467.4 L 1100.0 470.4 L 1140.0 473.6 L 1180.0 476.6 L 1220.0 478.9 L 1260.0 480.5 L 1300.0 481.4 L 1340.0 481.6 L 1380.0 481.4 L 1420.0 481.3 L 1460.0 481.3 L 1500.0 481.8 L 1540.0 482.8 L 1580.0 484.2 L 1620.0 485.7" fill="none" stroke="currentColor" stroke-width="1.4"></path>
<path d="M -20 524 L -20.0 547.0 L 20.0 549.1 L 60.0 550.2 L 100.0 549.9 L 140.0 548.3 L 180.0 545.5 L 220.0 541.8 L 260.0 537.4 L 300.0 532.7 L 340.0 528.1 L 380.0 524.0 L 420.0 520.6 L 460.0 518.1 L 500.0 516.5 L 540.0 515.7 L 580.0 515.5 L 620.0 515.6 L 660.0 515.7 L 700.0 515.5 L 740.0 514.9 L 780.0 513.6 L 820.0 511.7 L 860.0 509.3 L 900.0 506.6 L 940.0 504.0 L 980.0 501.8 L 1020.0 500.4 L 1060.0 499.9 L 1100.0 500.7 L 1140.0 502.7 L 1180.0 506.0 L 1220.0 510.1 L 1260.0 515.0 L 1300.0 520.1 L 1340.0 525.1 L 1380.0 529.6 L 1420.0 533.4 L 1460.0 536.1 L 1500.0 537.8 L 1540.0 538.5 L 1580.0 538.5 L 1620.0 537.9" fill="none" stroke="currentColor" stroke-width="1.4"></path>
<path d="M -20 572.0000000000001 L -20.0 619.5 L 20.0 616.6 L 60.0 612.1 L 100.0 606.2 L 140.0 599.1 L 180.0 591.3 L 220.0 583.3 L 260.0 575.3 L 300.0 568.0 L 340.0 561.5 L 380.0 556.2 L 420.0 552.2 L 460.0 549.5 L 500.0 548.1 L 540.0 547.7 L 580.0 548.0 L 620.0 548.7 L 660.0 549.6 L 700.0 550.1 L 740.0 550.1 L 780.0 549.4 L 820.0 547.9 L 860.0 545.7 L 900.0 542.8 L 940.0 539.5 L 980.0 536.2 L 1020.0 533.2 L 1060.0 530.9 L 1100.0 529.6 L 1140.0 529.6 L 1180.0 531.2 L 1220.0 534.4 L 1260.0 539.2 L 1300.0 545.4 L 1340.0 552.7 L 1380.0 560.8 L 1420.0 569.3 L 1460.0 577.7 L 1500.0 585.6 L 1540.0 592.5 L 1580.0 598.3 L 1620.0 602.6" fill="none" stroke="currentColor" stroke-width="1.4"></path>
<path d="M -20 620 L -20.0 644.7 L 20.0 638.0 L 60.0 630.9 L 100.0 623.6 L 140.0 616.5 L 180.0 609.9 L 220.0 603.9 L 260.0 598.8 L 300.0 594.7 L 340.0 591.6 L 380.0 589.5 L 420.0 588.5 L 460.0 588.3 L 500.0 588.9 L 540.0 589.9 L 580.0 591.2 L 620.0 592.6 L 660.0 593.8 L 700.0 594.6 L 740.0 595.0 L 780.0 594.9 L 820.0 594.2 L 860.0 592.9 L 900.0 591.3 L 940.0 589.3 L 980.0 587.2 L 1020.0 585.3 L 1060.0 583.7 L 1100.0 582.7 L 1140.0 582.5 L 1180.0 583.3 L 1220.0 585.1 L 1260.0 588.0 L 1300.0 592.1 L 1340.0 597.1 L 1380.0 603.1 L 1420.0 609.8 L 1460.0 617.0 L 1500.0 624.3 L 1540.0 631.6 L 1580.0 638.5 L 1620.0 644.8" fill="none" stroke="currentColor" stroke-width="1.4"></path>
<path d="M -20 668 L -20.0 657.7 L 20.0 643.3 L 60.0 631.9 L 100.0 624.6 L 140.0 621.7 L 180.0 622.5 L 220.0 626.0 L 260.0 630.5 L 300.0 634.7 L 340.0 637.2 L 380.0 637.6 L 420.0 636.0 L 460.0 633.3 L 500.0 630.8 L 540.0 630.1 L 580.0 632.5 L 620.0 638.7 L 660.0 648.9 L 700.0 662.5 L 740.0 677.8 L 780.0 693.3 L 820.0 706.9 L 860.0 717.1 L 900.0 722.8 L 940.0 723.8 L 980.0 720.7 L 1020.0 714.7 L 1060.0 707.3 L 1100.0 700.3 L 1140.0 694.9 L 1180.0 691.7 L 1220.0 690.7 L 1260.0 691.2 L 1300.0 691.9 L 1340.0 691.3 L 1380.0 688.1 L 1420.0 681.5 L 1460.0 671.4 L 1500.0 658.5 L 1540.0 644.0 L 1580.0 629.9 L 1620.0 617.9" fill="none" stroke="currentColor" stroke-width="1.4"></path>
<path d="M -20 716.0000000000001 L -20.0 671.8 L 20.0 667.8 L 60.0 666.5 L 100.0 667.6 L 140.0 670.6 L 180.0 674.9 L 220.0 679.7 L 260.0 684.2 L 300.0 687.8 L 340.0 690.2 L 380.0 691.3 L 420.0 691.2 L 460.0 690.3 L 500.0 689.3 L 540.0 688.8 L 580.0 689.5 L 620.0 691.9 L 660.0 696.5 L 700.0 703.3 L 740.0 712.1 L 780.0 722.3 L 820.0 733.4 L 860.0 744.4 L 900.0 754.5 L 940.0 762.8 L 980.0 768.7 L 1020.0 771.9 L 1060.0 772.1 L 1100.0 769.7 L 1140.0 765.1 L 1180.0 759.0 L 1220.0 752.2 L 1260.0 745.5 L 1300.0 739.6 L 1340.0 734.9 L 1380.0 731.7 L 1420.0 729.9 L 1460.0 729.2 L 1500.0 729.1 L 1540.0 728.9 L 1580.0 728.0 L 1620.0 725.8" fill="none" stroke="currentColor" stroke-width="1.4"></path>
<path d="M -20 764 L -20.0 742.3 L 20.0 743.6 L 60.0 745.4 L 100.0 747.4 L 140.0 749.5 L 180.0 751.5 L 220.0 753.3 L 260.0 754.7 L 300.0 755.7 L 340.0 756.3 L 380.0 756.5 L 420.0 756.5 L 460.0 756.5 L 500.0 756.4 L 540.0 756.6 L 580.0 757.2 L 620.0 758.2 L 660.0 759.8 L 700.0 761.9 L 740.0 764.7 L 780.0 767.8 L 820.0 771.3 L 860.0 774.9 L 900.0 778.4 L 940.0 781.7 L 980.0 784.5 L 1020.0 786.6 L 1060.0 787.9 L 1100.0 788.5 L 1140.0 788.2 L 1180.0 787.1 L 1220.0 785.3 L 1260.0 783.0 L 1300.0 780.3 L 1340.0 777.5 L 1380.0 774.8 L 1420.0 772.3 L 1460.0 770.1 L 1500.0 768.3 L 1540.0 767.0 L 1580.0 766.2 L 1620.0 765.7" fill="none" stroke="currentColor" stroke-width="1.4"></path>
<path d="M -20 812 L -20.0 799.0 L 20.0 800.9 L 60.0 802.7 L 100.0 804.3 L 140.0 805.7 L 180.0 806.8 L 220.0 807.6 L 260.0 808.2 L 300.0 808.5 L 340.0 808.7 L 380.0 808.7 L 420.0 808.8 L 460.0 809.0 L 500.0 809.3 L 540.0 809.8 L 580.0 810.7 L 620.0 811.8 L 660.0 813.4 L 700.0 815.2 L 740.0 817.3 L 780.0 819.6 L 820.0 822.1 L 860.0 824.6 L 900.0 826.9 L 940.0 829.1 L 980.0 831.0 L 1020.0 832.4 L 1060.0 833.4 L 1100.0 833.9 L 1140.0 833.8 L 1180.0 833.2 L 1220.0 832.1 L 1260.0 830.5 L 1300.0 828.6 L 1340.0 826.4 L 1380.0 824.0 L 1420.0 821.6 L 1460.0 819.3 L 1500.0 817.1 L 1540.0 815.1 L 1580.0 813.5 L 1620.0 812.1" fill="none" stroke="currentColor" stroke-width="1.4"></path>
<path d="M -20 860 L -20.0 853.0 L 20.0 856.9 L 60.0 859.2 L 100.0 860.3 L 140.0 860.6 L 180.0 861.0 L 220.0 862.3 L 260.0 864.8 L 300.0 869.0 L 340.0 874.4 L 380.0 880.6 L 420.0 886.6 L 460.0 891.4 L 500.0 894.2 L 540.0 894.5 L 580.0 892.0 L 620.0 887.1 L 660.0 880.4 L 700.0 872.9 L 740.0 865.6 L 780.0 859.3 L 820.0 854.8 L 860.0 852.0 L 900.0 850.8 L 940.0 850.7 L 980.0 850.7 L 1020.0 850.2 L 1060.0 848.7 L 1100.0 845.7 L 1140.0 841.6 L 1180.0 836.9 L 1220.0 832.4 L 1260.0 829.0 L 1300.0 827.6 L 1340.0 828.7 L 1380.0 832.5 L 1420.0 838.5 L 1460.0 846.2 L 1500.0 854.6 L 1540.0 862.5 L 1580.0 869.2 L 1620.0 874.0" fill="none" stroke="currentColor" stroke-width="1.4"></path>
<path d="M -20 908 L -20.0 913.5 L 20.0 914.3 L 60.0 914.5 L 100.0 914.6 L 140.0 915.0 L 180.0 915.9 L 220.0 917.7 L 260.0 920.5 L 300.0 924.0 L 340.0 928.2 L 380.0 932.5 L 420.0 936.6 L 460.0 939.9 L 500.0 942.0 L 540.0 942.5 L 580.0 941.3 L 620.0 938.4 L 660.0 933.9 L 700.0 928.2 L 740.0 921.8 L 780.0 915.1 L 820.0 908.8 L 860.0 903.2 L 900.0 898.7 L 940.0 895.6 L 980.0 893.7 L 1020.0 892.9 L 1060.0 893.0 L 1100.0 893.4 L 1140.0 893.9 L 1180.0 893.9 L 1220.0 893.3 L 1260.0 891.9 L 1300.0 889.7 L 1340.0 886.9 L 1380.0 883.8 L 1420.0 880.9 L 1460.0 878.6 L 1500.0 877.4 L 1540.0 877.6 L 1580.0 879.4 L 1620.0 882.8" fill="none" stroke="currentColor" stroke-width="1.4"></path>
<path d="M -20 956 L -20.0 976.0 L 20.0 975.7 L 60.0 976.0 L 100.0 977.0 L 140.0 978.9 L 180.0 981.9 L 220.0 985.7 L 260.0 990.2 L 300.0 995.1 L 340.0 999.9 L 380.0 1004.3 L 420.0 1007.7 L 460.0 1009.8 L 500.0 1010.2 L 540.0 1008.7 L 580.0 1005.2 L 620.0 999.9 L 660.0 992.8 L 700.0 984.5 L 740.0 975.2 L 780.0 965.5 L 820.0 955.9 L 860.0 946.9 L 900.0 939.0 L 940.0 932.5 L 980.0 927.5 L 1020.0 924.2 L 1060.0 922.4 L 1100.0 922.0 L 1140.0 922.6 L 1180.0 923.9 L 1220.0 925.4 L 1260.0 926.8 L 1300.0 927.7 L 1340.0 927.8 L 1380.0 927.1 L 1420.0 925.4 L 1460.0 922.9 L 1500.0 920.0 L 1540.0 916.8 L 1580.0 913.9 L 1620.0 911.6" fill="none" stroke="currentColor" stroke-width="1.4"></path>
<path d="M -20 1004 L -20.0 1035.3 L 20.0 1036.5 L 60.0 1038.5 L 100.0 1041.3 L 140.0 1044.6 L 180.0 1048.4 L 220.0 1052.2 L 260.0 1055.8 L 300.0 1058.9 L 340.0 1061.1 L 380.0 1062.2 L 420.0 1061.9 L 460.0 1060.0 L 500.0 1056.6 L 540.0 1051.5 L 580.0 1044.9 L 620.0 1037.0 L 660.0 1028.0 L 700.0 1018.3 L 740.0 1008.3 L 780.0 998.3 L 820.0 988.7 L 860.0 979.8 L 900.0 972.1 L 940.0 965.6 L 980.0 960.6 L 1020.0 957.1 L 1060.0 955.1 L 1100.0 954.5 L 1140.0 955.1 L 1180.0 956.7 L 1220.0 958.8 L 1260.0 961.4 L 1300.0 963.9 L 1340.0 966.2 L 1380.0 967.9 L 1420.0 969.1 L 1460.0 969.4 L 1500.0 969.0 L 1540.0 967.8 L 1580.0 966.1 L 1620.0 964.1" fill="none" stroke="currentColor" stroke-width="1.4"></path>
<path d="M -20 1052 L -20.0 1074.9 L 20.0 1077.6 L 60.0 1080.4 L 100.0 1082.2 L 140.0 1082.1 L 180.0 1079.3 L 220.0 1073.6 L 260.0 1065.2 L 300.0 1055.1 L 340.0 1044.3 L 380.0 1034.2 L 420.0 1025.9 L 460.0 1020.3 L 500.0 1017.7 L 540.0 1018.1 L 580.0 1020.6 L 620.0 1024.3 L 660.0 1028.1 L 700.0 1031.1 L 740.0 1032.8 L 780.0 1032.9 L 820.0 1032.0 L 860.0 1030.7 L 900.0 1030.2 L 940.0 1031.4 L 980.0 1034.8 L 1020.0 1040.9 L 1060.0 1049.3 L 1100.0 1059.2 L 1140.0 1069.6 L 1180.0 1079.0 L 1220.0 1086.3 L 1260.0 1090.7 L 1300.0 1091.9 L 1340.0 1090.0 L 1380.0 1085.7 L 1420.0 1080.1 L 1460.0 1074.4 L 1500.0 1069.4 L 1540.0 1066.0 L 1580.0 1064.2 L 1620.0 1063.7" fill="none" stroke="currentColor" stroke-width="1.4"></path>
<path d="M -20 1100 L -20.0 1118.5 L 20.0 1118.9 L 60.0 1118.4 L 100.0 1116.8 L 140.0 1113.8 L 180.0 1109.6 L 220.0 1104.4 L 260.0 1098.4 L 300.0 1092.1 L 340.0 1085.9 L 380.0 1080.4 L 420.0 1076.0 L 460.0 1072.9 L 500.0 1071.4 L 540.0 1071.3 L 580.0 1072.6 L 620.0 1074.9 L 660.0 1077.8 L 700.0 1080.9 L 740.0 1083.7 L 780.0 1086.1 L 820.0 1087.7 L 860.0 1088.6 L 900.0 1088.8 L 940.0 1088.6 L 980.0 1088.4 L 1020.0 1088.4 L 1060.0 1089.1 L 1100.0 1090.8 L 1140.0 1093.5 L 1180.0 1097.4 L 1220.0 1102.2 L 1260.0 1107.8 L 1300.0 1113.6 L 1340.0 1119.3 L 1380.0 1124.3 L 1420.0 1128.2 L 1460.0 1130.8 L 1500.0 1131.8 L 1540.0 1131.1 L 1580.0 1129.1 L 1620.0 1125.9" fill="none" stroke="currentColor" stroke-width="1.4"></path>
</g>
</svg>